<svg xmlns="http://www.w3.org/2000/svg" xmlns:xlink="http://www.w3.org/1999/xlink" xmlns:lucid="lucid" width="1280" height="1910"><g transform="translate(-320 2500)" lucid:page-tab-id="0_0"><path d="M503.7-2280c17.68 0 32 17.9 32 40s-14.32 40-32 40h-96c-17.67 0-32-17.9-32-40s14.33-40 32-40z" stroke="#5e5e5e" stroke-width="3" fill="#fff"/><use xlink:href="#a" transform="matrix(1,0,0,1,380.7055461174966,-2275) translate(41.111111111111114 39.65277777777778)"/><path d="M557.07-2474a6 6 0 0 1 6-6h811.73a6 6 0 0 1 6 6v94a6 6 0 0 1-6 6H563.07a6 6 0 0 1-6-6z" stroke="#000" stroke-opacity="0" stroke-width="3" fill="#fff" fill-opacity="0"/><use xlink:href="#b" transform="matrix(1,0,0,1,562.0678521702562,-2475) translate(28.748765432098878 41.1111111111111)"/><use xlink:href="#c" transform="matrix(1,0,0,1,562.0678521702562,-2475) translate(154.63765432098768 41.1111111111111)"/><use xlink:href="#d" transform="matrix(1,0,0,1,562.0678521702562,-2475) translate(195.31049382716049 41.1111111111111)"/><use xlink:href="#e" transform="matrix(1,0,0,1,562.0678521702562,-2475) translate(279.77962962962954 41.1111111111111)"/><use xlink:href="#f" transform="matrix(1,0,0,1,562.0678521702562,-2475) translate(295.88456790123445 41.1111111111111)"/><use xlink:href="#g" transform="matrix(1,0,0,1,562.0678521702562,-2475) translate(432.7685185185184 41.1111111111111)"/><use xlink:href="#h" transform="matrix(1,0,0,1,562.0678521702562,-2475) translate(471.96234567901223 41.1111111111111)"/><use xlink:href="#i" transform="matrix(1,0,0,1,562.0678521702562,-2475) translate(553.3598765432098 41.1111111111111)"/><use xlink:href="#j" transform="matrix(1,0,0,1,562.0678521702562,-2475) translate(628.5413580246911 41.1111111111111)"/><use xlink:href="#k" transform="matrix(1,0,0,1,562.0678521702562,-2475) translate(686.056172839506 41.1111111111111)"/><use xlink:href="#l" transform="matrix(1,0,0,1,562.0678521702562,-2475) translate(283.570987654321 70.44444444444443)"/><use xlink:href="#m" transform="matrix(1,0,0,1,562.0678521702562,-2475) translate(391.46604938271605 70.44444444444443)"/><use xlink:href="#n" transform="matrix(1,0,0,1,562.0678521702562,-2475) translate(417.34876543209873 70.44444444444443)"/><path d="M450-2017.83v20.23a.08.08 0 0 0 .08.08.08.08 0 0 1 .08.08v2.73" stroke="#5e5e5e" stroke-width="2" fill="none"/><path d="M451-2017.8h-2v-1.03h2z" stroke="#5e5e5e" stroke-width=".05" fill="#5e5e5e"/><path d="M450.16-1979.44l-4.64-14.27h9.27z" stroke="#5e5e5e" stroke-width="2" fill="#5e5e5e"/><path d="M450.16-1690.43V-1671.7" stroke="#5e5e5e" stroke-width="2" fill="none"/><path d="M451.16-1690.4h-2v-1.03h2z" stroke="#5e5e5e" stroke-width=".05" fill="#5e5e5e"/><path d="M450.16-1656.44l-4.64-14.27h9.27z" stroke="#5e5e5e" stroke-width="2" fill="#5e5e5e"/><path d="M455.7-1385.85v29.36" stroke="#5e5e5e" stroke-width="2" fill="none"/><path d="M456.7-1385.82h-2v-1.03h2z" stroke="#5e5e5e" stroke-width=".05" fill="#5e5e5e"/><path d="M455.7-1341.22l-4.63-14.26h9.27z" stroke="#5e5e5e" stroke-width="2" fill="#5e5e5e"/><path d="M450-1037.5v34.17a.08.08 0 0 0 .08.08.08.08 0 0 1 .08.08v16.67" stroke="#5e5e5e" stroke-width="2" fill="none"/><path d="M451-1037.47h-2v-1.03h2z" stroke="#5e5e5e" stroke-width=".05" fill="#5e5e5e"/><path d="M450.16-971.24l-4.64-14.26h9.27z" stroke="#5e5e5e" stroke-width="2" fill="#5e5e5e"/><path d="M1160.67-2154.2a7.8 7.8 0 0 1 7.54-5.8h266.6a4.6 4.6 0 0 1 4.45 5.8l-28.9 108.4a7.8 7.8 0 0 1-7.55 5.8h-266.6a4.6 4.6 0 0 1-4.44-5.8z" stroke="#5e5e5e" stroke-width="3" fill="#fff"/><use xlink:href="#o" transform="matrix(1,0,0,1,1135.2123842639262,-2155) translate(31.739567901234572 59.02777777777778)"/><use xlink:href="#p" transform="matrix(1,0,0,1,1135.2123842639262,-2155) translate(111.92475308641976 59.02777777777778)"/><use xlink:href="#q" transform="matrix(1,0,0,1,1135.2123842639262,-2155) translate(131.06055555555554 59.02777777777778)"/><use xlink:href="#r" transform="matrix(1,0,0,1,1135.2123842639262,-2155) translate(211.24574074074076 59.02777777777778)"/><use xlink:href="#s" transform="matrix(1,0,0,1,1135.2123842639262,-2155) translate(226.06055555555554 59.02777777777778)"/><path d="M1159.83-1972.74a7.8 7.8 0 0 1 7.54-5.8h266.6a4.6 4.6 0 0 1 4.44 5.8l-28.9 108.4a7.8 7.8 0 0 1-7.54 5.8h-266.6a4.6 4.6 0 0 1-4.44-5.8z" stroke="#5e5e5e" stroke-width="3" fill="#fff"/><use xlink:href="#t" transform="matrix(1,0,0,1,1134.3729773640775,-1973.5342799861078) translate(28.03586419753089 59.02777777777778)"/><use xlink:href="#p" transform="matrix(1,0,0,1,1134.3729773640775,-1973.5342799861078) translate(118.09759259259262 59.02777777777778)"/><use xlink:href="#u" transform="matrix(1,0,0,1,1134.3729773640775,-1973.5342799861078) translate(137.2333950617284 59.02777777777778)"/><use xlink:href="#r" transform="matrix(1,0,0,1,1134.3729773640775,-1973.5342799861078) translate(227.29512345679012 59.02777777777778)"/><use xlink:href="#v" transform="matrix(1,0,0,1,1134.3729773640775,-1973.5342799861078) translate(242.10993827160493 59.02777777777778)"/><path d="M1160.67-1792.74a7.8 7.8 0 0 1 7.54-5.8h266.6a4.6 4.6 0 0 1 4.45 5.8l-28.9 108.4a7.8 7.8 0 0 1-7.55 5.8h-266.6a4.6 4.6 0 0 1-4.44-5.8z" stroke="#5e5e5e" stroke-width="3" fill="#fff"/><use xlink:href="#w" transform="matrix(1,0,0,1,1135.2123842639257,-1793.5342799861078) translate(44.02351851851852 59.02777777777778)"/><use xlink:href="#p" transform="matrix(1,0,0,1,1135.2123842639257,-1793.5342799861078) translate(118.09759259259259 59.02777777777778)"/><use xlink:href="#x" transform="matrix(1,0,0,1,1135.2123842639257,-1793.5342799861078) translate(137.2333950617284 59.02777777777778)"/><use xlink:href="#r" transform="matrix(1,0,0,1,1135.2123842639257,-1793.5342799861078) translate(211.30746913580248 59.02777777777778)"/><use xlink:href="#y" transform="matrix(1,0,0,1,1135.2123842639257,-1793.5342799861078) translate(226.12228395061726 59.02777777777778)"/><path d="M1159.83-1612.74a7.8 7.8 0 0 1 7.54-5.8h266.6a4.6 4.6 0 0 1 4.44 5.8l-28.9 108.4a7.8 7.8 0 0 1-7.54 5.8h-266.6a4.6 4.6 0 0 1-4.44-5.8z" stroke="#5e5e5e" stroke-width="3" fill="#fff"/><use xlink:href="#z" transform="matrix(1,0,0,1,1134.3729773640775,-1613.5342799861078) translate(44.02351851851852 59.02777777777778)"/><use xlink:href="#p" transform="matrix(1,0,0,1,1134.3729773640775,-1613.5342799861078) translate(111.92475308641976 59.02777777777778)"/><use xlink:href="#A" transform="matrix(1,0,0,1,1134.3729773640775,-1613.5342799861078) translate(131.06055555555554 59.02777777777778)"/><use xlink:href="#r" transform="matrix(1,0,0,1,1134.3729773640775,-1613.5342799861078) translate(198.9617901234568 59.02777777777778)"/><use xlink:href="#B" transform="matrix(1,0,0,1,1134.3729773640775,-1613.5342799861078) translate(213.7766049382716 59.02777777777778)"/><path d="M1285.5-2037.54v39.04" stroke="#5e5e5e" stroke-width="2" fill="none"/><path d="M1286.5-2037.5h-2v-1.04h2z" stroke="#5e5e5e" stroke-width=".05" fill="#5e5e5e"/><path d="M1285.5-1983.23l-4.63-14.27h9.27z" stroke="#5e5e5e" stroke-width="2" fill="#5e5e5e"/><path d="M1284.66-1856.07v37.57" stroke="#5e5e5e" stroke-width="2" fill="none"/><path d="M1285.66-1856.05h-2v-1.02h2z" stroke="#5e5e5e" stroke-width=".05" fill="#5e5e5e"/><path d="M1284.66-1803.23l-4.63-14.27h9.27z" stroke="#5e5e5e" stroke-width="2" fill="#5e5e5e"/><path d="M1285.5-1676.07v37.57" stroke="#5e5e5e" stroke-width="2" fill="none"/><path d="M1286.5-1676.05h-2v-1.02h2z" stroke="#5e5e5e" stroke-width=".05" fill="#5e5e5e"/><path d="M1285.5-1623.23l-4.63-14.27h9.27z" stroke="#5e5e5e" stroke-width="2" fill="#5e5e5e"/><path d="M1170.06-1432.74a7.8 7.8 0 0 1 7.55-5.8h251.06a4.6 4.6 0 0 1 4.46 5.8l-33.85 126.94a7.8 7.8 0 0 1-7.55 5.8h-251.06a4.6 4.6 0 0 1-4.45-5.8z" stroke="#5e5e5e" stroke-width="3" fill="#fff"/><use xlink:href="#C" transform="matrix(1,0,0,1,1139.6645963582955,-1433.5342799861078) translate(47.159320987654326 41.96527777777778)"/><use xlink:href="#p" transform="matrix(1,0,0,1,1139.6645963582955,-1433.5342799861078) translate(144.56672839506174 41.96527777777778)"/><use xlink:href="#q" transform="matrix(1,0,0,1,1139.6645963582955,-1433.5342799861078) translate(163.70253086419757 41.96527777777778)"/><use xlink:href="#D" transform="matrix(1,0,0,1,1139.6645963582955,-1433.5342799861078) translate(243.88771604938273 41.96527777777778)"/><use xlink:href="#u" transform="matrix(1,0,0,1,1139.6645963582955,-1433.5342799861078) translate(46.88771604938273 68.63194444444446)"/><use xlink:href="#E" transform="matrix(1,0,0,1,1139.6645963582955,-1433.5342799861078) translate(136.94944444444445 68.63194444444446)"/><use xlink:href="#x" transform="matrix(1,0,0,1,1139.6645963582955,-1433.5342799861078) translate(156.08524691358025 68.63194444444446)"/><use xlink:href="#D" transform="matrix(1,0,0,1,1139.6645963582955,-1433.5342799861078) translate(230.15932098765433 68.63194444444446)"/><use xlink:href="#F" transform="matrix(1,0,0,1,1139.6645963582955,-1433.5342799861078) translate(107.1408024691358 95.29861111111111)"/><path d="M490.16-762.93c0 22.1-17.9 40-40 40s-40-17.9-40-40 17.9-40 40-40 40 17.9 40 40z" stroke="#5e5e5e" stroke-width="3" fill="#fff"/><use xlink:href="#G" transform="matrix(1,0,0,1,415.15825387346933,-797.9289757293068) translate(27.592592592592595 39.65277777777778)"/><path d="M1324.66-2260c0 22.1-17.9 40-40 40s-40-17.9-40-40 17.9-40 40-40 40 17.9 40 40z" stroke="#5e5e5e" stroke-width="3" fill="#fff"/><use xlink:href="#G" transform="matrix(1,0,0,1,1249.6645963513774,-2295) translate(27.592592592592595 39.65277777777778)"/><path d="M1284.66-2217.5v37.54" stroke="#5e5e5e" stroke-width="2" fill="none"/><path d="M1284.64-2218.5l1.02-.03v1.06h-2v-1.1z" stroke="#5e5e5e" stroke-width=".05" fill="#5e5e5e"/><path d="M1284.66-2164.7l-4.63-14.26h9.27z" stroke="#5e5e5e" stroke-width="2" fill="#5e5e5e"/><path d="M1284.66-1496.07v37.57" stroke="#5e5e5e" stroke-width="2" fill="none"/><path d="M1285.66-1496.05h-2v-1.02h2z" stroke="#5e5e5e" stroke-width=".05" fill="#5e5e5e"/><path d="M1284.66-1443.23l-4.63-14.27h9.27z" stroke="#5e5e5e" stroke-width="2" fill="#5e5e5e"/><path d="M1280.2-1237.18a11.26 11.26 0 0 1 10.6 0l119.4 63.63a3.2 3.2 0 0 1 0 5.64l-119.4 63.6a11.26 11.26 0 0 1-10.6 0l-119.4-63.6a3.2 3.2 0 0 1 0-5.65z" stroke="#5e5e5e" stroke-width="3" fill="#fff"/><use xlink:href="#H" transform="matrix(1,0,0,1,1160.504003251226,-1235) translate(39.26425925925926 70.18402777777777)"/><use xlink:href="#I" transform="matrix(1,0,0,1,1160.504003251226,-1235) translate(68.89388888888888 70.18402777777777)"/><use xlink:href="#J" transform="matrix(1,0,0,1,1160.504003251226,-1235) translate(166.3012962962963 70.18402777777777)"/><use xlink:href="#K" transform="matrix(1,0,0,1,1160.504003251226,-1235) translate(198.4000617283951 70.18402777777777)"/><path d="M1284.66-1297.54v27.85a.42.42 0 0 0 .42.43.42.42 0 0 1 .42.42v10.35" stroke="#5e5e5e" stroke-width="2" fill="none"/><path d="M1285.66-1297.5h-2v-1.04h2z" stroke="#5e5e5e" stroke-width=".05" fill="#5e5e5e"/><path d="M1285.5-1243.24l-4.63-14.26h9.27z" stroke="#5e5e5e" stroke-width="2" fill="#5e5e5e"/><path d="M370.16-1962.28a6.8 6.8 0 0 1 5.95-6.74l148.1-18.44a5.3 5.3 0 0 1 5.96 5.26v108a6 6 0 0 1-6 6h-148a6 6 0 0 1-6-6z" stroke="#5e5e5e" stroke-width="3" fill="#fff"/><use xlink:href="#L" transform="matrix(1,0,0,1,375.15825387346933,-1963.2034108854887) translate(37.99382716049383 48.71527777777778)"/><path d="M370.16-1640.44a6.67 6.67 0 0 1 5.96-6.63l148.07-15.75a5.4 5.4 0 0 1 5.96 5.36v90.53a6 6 0 0 1-6 6h-148a6 6 0 0 1-6-6z" stroke="#5e5e5e" stroke-width="3" fill="#fff"/><use xlink:href="#M" transform="matrix(1,0,0,1,375.15825387346933,-1641.3701344643584) translate(33.05555555555556 41.52777777777778)"/><path d="M375.7-1324.06a6.8 6.8 0 0 1 5.96-6.74l148.1-18.44a5.3 5.3 0 0 1 5.95 5.26v108a6 6 0 0 1-6 6h-148a6 6 0 0 1-6-6z" stroke="#5e5e5e" stroke-width="3" fill="#fff"/><use xlink:href="#N" transform="matrix(1,0,0,1,380.70554611749657,-1324.9805298217648) translate(41.04938271604939 48.71527777777778)"/><path d="M370.16-954.08a6.8 6.8 0 0 1 5.95-6.74l148.1-18.44a5.3 5.3 0 0 1 5.96 5.26v108a6 6 0 0 1-6 6h-148a6 6 0 0 1-6-6z" stroke="#5e5e5e" stroke-width="3" fill="#fff"/><use xlink:href="#O" transform="matrix(1,0,0,1,375.15825387346933,-955) translate(44.135802469135804 48.71527777777778)"/><path d="M1400.45-1015.16a11.84 11.84 0 0 1 9.55-4.84h148c12.15 0 22 26.86 22 60s-9.85 60-22 60h-148a11.84 11.84 0 0 1-9.55-4.84l-36.9-50.32a8.18 8.18 0 0 1 0-9.68z" stroke="#5e5e5e" stroke-width="3" fill="#fff"/><use xlink:href="#P" transform="matrix(1,0,0,1,1365,-1015) translate(74.79512345679012 45.27777777777778)"/><use xlink:href="#Q" transform="matrix(1,0,0,1,1365,-1015) translate(49.937098765432104 71.94444444444446)"/><path d="M380.45-1155.16A11.84 11.84 0 0 1 390-1160h148c12.15 0 22 26.86 22 60s-9.85 60-22 60H390a11.84 11.84 0 0 1-9.55-4.84l-36.9-50.32a8.18 8.18 0 0 1 0-9.68z" stroke="#5e5e5e" stroke-width="3" fill="#fff"/><use xlink:href="#R" transform="matrix(1,0,0,1,345,-1155) translate(33.71487654320988 45.27777777777778)"/><use xlink:href="#S" transform="matrix(1,0,0,1,345,-1155) translate(113.83833333333334 45.27777777777778)"/><use xlink:href="#T" transform="matrix(1,0,0,1,345,-1155) translate(133.59141975308643 45.27777777777778)"/><use xlink:href="#U" transform="matrix(1,0,0,1,345,-1155) translate(76.26425925925926 71.94444444444446)"/><use xlink:href="#V" transform="matrix(1,0,0,1,345,-1155) translate(113.23956790123457 71.94444444444446)"/><path d="M380.45-2135.5a11.84 11.84 0 0 1 9.55-4.83h148c12.15 0 22 26.86 22 60 0 33.13-9.85 60-22 60H390a11.84 11.84 0 0 1-9.55-4.84l-36.9-50.32a8.18 8.18 0 0 1 0-9.67z" stroke="#5e5e5e" stroke-width="3" fill="#fff"/><g><use xlink:href="#R" transform="matrix(1,0,0,1,345,-2135.3333333333335) translate(33.71487654320988 45.27777777777778)"/><use xlink:href="#S" transform="matrix(1,0,0,1,345,-2135.3333333333335) translate(113.83833333333334 45.27777777777778)"/><use xlink:href="#T" transform="matrix(1,0,0,1,345,-2135.3333333333335) translate(133.59141975308643 45.27777777777778)"/><use xlink:href="#U" transform="matrix(1,0,0,1,345,-2135.3333333333335) translate(68.85685185185186 71.94444444444446)"/><use xlink:href="#W" transform="matrix(1,0,0,1,345,-2135.3333333333335) translate(105.83216049382716 71.94444444444446)"/></g><path d="M380.6-1808.1a11.84 11.84 0 0 1 9.56-4.83h148c12.15 0 22 26.87 22 60 0 33.14-9.85 60-22 60h-148a11.84 11.84 0 0 1-9.55-4.83l-36.9-50.33a8.18 8.18 0 0 1 0-9.66z" stroke="#5e5e5e" stroke-width="3" fill="#fff"/><g><use xlink:href="#R" transform="matrix(1,0,0,1,345.1577582049475,-1807.926511430819) translate(33.71487654320988 45.27777777777778)"/><use xlink:href="#S" transform="matrix(1,0,0,1,345.1577582049475,-1807.926511430819) translate(113.83833333333334 45.27777777777778)"/><use xlink:href="#T" transform="matrix(1,0,0,1,345.1577582049475,-1807.926511430819) translate(133.59141975308643 45.27777777777778)"/><use xlink:href="#U" transform="matrix(1,0,0,1,345.1577582049475,-1807.926511430819) translate(68.85685185185186 71.94444444444446)"/><use xlink:href="#X" transform="matrix(1,0,0,1,345.1577582049475,-1807.926511430819) translate(105.83216049382716 71.94444444444446)"/></g><path d="M386.16-1503.5a11.84 11.84 0 0 1 9.55-4.85h148c12.16 0 22 26.86 22 60s-9.84 60-22 60h-148a11.84 11.84 0 0 1-9.54-4.84l-36.9-50.3a8.18 8.18 0 0 1 0-9.7z" stroke="#5e5e5e" stroke-width="3" fill="#fff"/><g><use xlink:href="#R" transform="matrix(1,0,0,1,350.70554609620126,-1503.3493752575632) translate(33.71487654320988 45.27777777777778)"/><use xlink:href="#S" transform="matrix(1,0,0,1,350.70554609620126,-1503.3493752575632) translate(113.83833333333334 45.27777777777778)"/><use xlink:href="#T" transform="matrix(1,0,0,1,350.70554609620126,-1503.3493752575632) translate(133.59141975308643 45.27777777777778)"/><use xlink:href="#U" transform="matrix(1,0,0,1,350.70554609620126,-1503.3493752575632) translate(74.38154320987655 71.94444444444446)"/><use xlink:href="#Y" transform="matrix(1,0,0,1,350.70554609620126,-1503.3493752575632) translate(111.35685185185186 71.94444444444446)"/></g><path d="M1040.45-1015.16a11.84 11.84 0 0 1 9.55-4.84h148c12.15 0 22 26.86 22 60s-9.85 60-22 60h-148a11.84 11.84 0 0 1-9.55-4.84l-36.9-50.32a8.18 8.18 0 0 1 0-9.68z" stroke="#5e5e5e" stroke-width="3" fill="#fff"/><g><use xlink:href="#P" transform="matrix(1,0,0,1,1005,-1015) translate(74.79512345679012 45.27777777777778)"/><use xlink:href="#Z" transform="matrix(1,0,0,1,1005,-1015) translate(41.94327160493828 71.94444444444446)"/></g><g><path d="M901.5-2309.25a.75.75 0 0 1 .75.75v1697a.75.75 0 0 1-.75.75.75.75 0 0 1-.75-.75v-1697a.75.75 0 0 1 .75-.75z" stroke="#5e5e5e" stroke-width="1.5" fill="none"/></g><path d="M450.16-1865.74v32.84" stroke="#5e5e5e" stroke-width="2" fill="none"/><path d="M451.16-1865.7h-2v-1.04h2z" stroke="#5e5e5e" stroke-width=".05" fill="#5e5e5e"/><path d="M450.16-1817.63l-4.64-14.27h9.27z" stroke="#5e5e5e" stroke-width="2" fill="#5e5e5e"/><path d="M450.16-1558.47v30.15" stroke="#5e5e5e" stroke-width="2" fill="none"/><path d="M451.16-1558.44h-2v-1.03h2z" stroke="#5e5e5e" stroke-width=".05" fill="#5e5e5e"/><path d="M450.16-1513.05l-4.64-14.27h9.27z" stroke="#5e5e5e" stroke-width="2" fill="#5e5e5e"/><path d="M450.16-857.54v34.61" stroke="#5e5e5e" stroke-width="2" fill="none"/><path d="M451.16-857.5h-2v-1.04h2z" stroke="#5e5e5e" stroke-width=".05" fill="#5e5e5e"/><path d="M450.16-807.67l-4.64-14.26h9.27z" stroke="#5e5e5e" stroke-width="2" fill="#5e5e5e"/><path d="M455.7-1227.52v47.55" stroke="#5e5e5e" stroke-width="2" fill="none"/><path d="M456.7-1227.5h-2v-1.02h2z" stroke="#5e5e5e" stroke-width=".05" fill="#5e5e5e"/><path d="M455.7-1164.7l-4.63-14.27h9.27z" stroke="#5e5e5e" stroke-width="2" fill="#5e5e5e"/><path d="M455.7-2197.5v37.2" stroke="#5e5e5e" stroke-width="2" fill="none"/><path d="M456.7-2197.47h-2v-1.03h2z" stroke="#5e5e5e" stroke-width=".05" fill="#5e5e5e"/><path d="M455.7-2145.04l-4.63-14.27h9.27z" stroke="#5e5e5e" stroke-width="2" fill="#5e5e5e"/><path d="M1471-1039.97h-2l-.04-73.76h2zm-5.9-131.68l1.06.26 1.02.43.94.57.83.72.72.83.57.94.42 1 .27 1.1v30.74h-2v-30.5l-.18-.72-.3-.72-.4-.67-.52-.6-.6-.5-.66-.42-.73-.3-.76-.17-.82-.06h-49.55v-2h49.64z" stroke="#5e5e5e" stroke-width=".05" fill="#5e5e5e"/><path d="M1414.44-1169.73h-1.14l.1-1-.1-1h1.14z" fill="#5e5e5e"/><path d="M1414.46-1169.7h-1.2l.13-1.03-.13-1.03h1.2zm-1.13-2l.1.97-.1.97h1.08v-1.95z" stroke="#5e5e5e" stroke-width=".05" fill="#5e5e5e"/><path d="M1470-1024.7l-4.64-14.27h9.28z" fill="#5e5e5e"/><path d="M1470-1021.47l-6-18.5h12zm-3.26-16.5l3.26 10.03 3.26-10.03z" stroke="#5e5e5e" stroke-width=".05" fill="#5e5e5e"/><g><use xlink:href="#aa" transform="matrix(1,0,0,1,1453.7037037037037,-1135.062155830651) translate(0 14.222222222222223)"/></g><path d="M1111-1039.97h-2l.04-69.26h2zm45.6-129.76h-40.56l-.82.06-.76.18-.73.3-.67.42-.6.5-.5.6-.4.68-.3.72-.2.73v34.98h-2v-35.22l.28-1.1.42-1 .57-.95.72-.83.83-.72.94-.57 1.02-.42 1.06-.25 1.06-.08h40.64z" stroke="#5e5e5e" stroke-width=".05" fill="#5e5e5e"/><path d="M1157.6-1170.73l.1 1h-1.13v-2h1.14z" fill="#5e5e5e"/><path d="M1157.62-1170.73l.1 1.02h-1.17v-2.06h1.18zm-1.02-.98v1.94h1.08l-.1-.97.1-.98z" stroke="#5e5e5e" stroke-width=".05" fill="#5e5e5e"/><path d="M1110-1024.7l-4.64-14.27h9.28z" fill="#5e5e5e"/><path d="M1110-1021.47l-6-18.5h12zm-3.26-16.5l3.26 10.03 3.26-10.03z" stroke="#5e5e5e" stroke-width=".05" fill="#5e5e5e"/><g><use xlink:href="#ab" transform="matrix(1,0,0,1,1090.2962962962963,-1130.5661590939903) translate(0 14.222222222222223)"/></g><path d="M1333.5-802.93c17.68 0 32 17.9 32 40s-14.32 40-32 40h-96c-17.67 0-32-17.9-32-40s14.33-40 32-40z" stroke="#5e5e5e" stroke-width="3" fill="#fff"/><g><use xlink:href="#ac" transform="matrix(1,0,0,1,1210.504003251226,-797.9289757293068) translate(55.925925925925924 39.65277777777778)"/></g><path d="M1110.53-897.5v128.57a6 6 0 0 0 6 6h68.97" stroke="#5e5e5e" stroke-width="2" fill="none"/><path d="M1111.53-897.47h-2v-1.03h2z" stroke="#5e5e5e" stroke-width=".05" fill="#5e5e5e"/><path d="M1200.77-762.93l-14.27 4.64v-9.26z" stroke="#5e5e5e" stroke-width="2" fill="#5e5e5e"/><path d="M1470.53-897.5v128.57a6 6 0 0 1-6 6h-79.02" stroke="#5e5e5e" stroke-width="2" fill="none"/><path d="M1471.53-897.47h-2v-1.03h2z" stroke="#5e5e5e" stroke-width=".05" fill="#5e5e5e"/><path d="M1370.24-762.93l14.27-4.63v9.27z" stroke="#5e5e5e" stroke-width="2" fill="#5e5e5e"/><defs><path fill="#333" d="M33 0v-248h34V0H33" id="ad"/><path fill="#333" d="M190 0L58-211 59 0H30v-248h39L202-35l-2-213h31V0h-41" id="ae"/><path fill="#333" d="M212-179c-10-28-35-45-73-45-59 0-87 40-87 99 0 60 29 101 89 101 43 0 62-24 78-52l27 14C228-24 195 4 139 4 59 4 22-46 18-125c-6-104 99-153 187-111 19 9 31 26 39 46" id="af"/><path fill="#333" d="M140-251c81 0 123 46 123 126C263-46 219 4 140 4 59 4 17-45 17-125s42-126 123-126zm0 227c63 0 89-41 89-101s-29-99-89-99c-61 0-89 39-89 99S79-25 140-24" id="ag"/><g id="a"><use transform="matrix(0.06172839506172839,0,0,0.06172839506172839,0,0)" xlink:href="#ad"/><use transform="matrix(0.06172839506172839,0,0,0.06172839506172839,6.172839506172839,0)" xlink:href="#ae"/><use transform="matrix(0.06172839506172839,0,0,0.06172839506172839,22.160493827160494,0)" xlink:href="#ad"/><use transform="matrix(0.06172839506172839,0,0,0.06172839506172839,28.333333333333332,0)" xlink:href="#af"/><use transform="matrix(0.06172839506172839,0,0,0.06172839506172839,44.32098765432099,0)" xlink:href="#ad"/><use transform="matrix(0.06172839506172839,0,0,0.06172839506172839,50.49382716049383,0)" xlink:href="#ag"/></g><path fill="#333" d="M67-125c0 53 21 87 73 88 37 1 54-22 65-47l45 17C233-25 199 4 140 4 58 4 20-42 15-125 8-235 124-281 211-232c18 10 29 29 36 50l-46 12c-8-25-30-41-62-41-52 0-71 34-72 86" id="ah"/><path fill="#333" d="M101-269v-5l44-45h45v8l-59 42h-30zM199 0l-22-63H83L61 0H9l90-248h61L250 0h-51zm-33-102l-36-108c-10 38-24 72-36 108h72" id="ai"/><path fill="#333" d="M24 0v-248h52v208h133V0H24" id="aj"/><path fill="#333" d="M238-95c0 69-44 99-111 99C63 4 22-25 22-93v-155h51v151c-1 38 19 59 55 60 90 1 49-130 58-211h52v153" id="ak"/><path fill="#333" d="M140-251c80 0 125 45 125 126S219 4 139 4C58 4 15-44 15-125s44-126 125-126zm-1 214c52 0 73-35 73-88 0-50-21-86-72-86-52 0-73 35-73 86s22 88 72 88" id="al"/><g id="b"><use transform="matrix(0.06790123456790119,0,0,0.06790123456790119,0,0)" xlink:href="#ah"/><use transform="matrix(0.06790123456790119,0,0,0.06790123456790119,17.586419753086407,0)" xlink:href="#ai"/><use transform="matrix(0.06790123456790119,0,0,0.06790123456790119,35.172839506172814,0)" xlink:href="#aj"/><use transform="matrix(0.06790123456790119,0,0,0.06790123456790119,50.04320987654317,0)" xlink:href="#ah"/><use transform="matrix(0.06790123456790119,0,0,0.06790123456790119,67.62962962962958,0)" xlink:href="#ak"/><use transform="matrix(0.06790123456790119,0,0,0.06790123456790119,85.21604938271598,0)" xlink:href="#aj"/><use transform="matrix(0.06790123456790119,0,0,0.06790123456790119,100.08641975308635,0)" xlink:href="#al"/></g><path fill="#333" d="M24-248c120-7 223 5 221 122C244-46 201 0 124 0H24v-248zM76-40c74 7 117-18 117-86 0-67-45-88-117-82v168" id="am"/><path fill="#333" d="M24 0v-248h195v40H76v63h132v40H76v65h150V0H24" id="an"/><g id="c"><use transform="matrix(0.06790123456790119,0,0,0.06790123456790119,0,0)" xlink:href="#am"/><use transform="matrix(0.06790123456790119,0,0,0.06790123456790119,17.586419753086407,0)" xlink:href="#an"/></g><path fill="#333" d="M230 0l2-204L168 0h-37L68-204 70 0H24v-248h70l56 185 57-185h69V0h-46" id="ao"/><path fill="#333" d="M24 0v-248h52V0H24" id="ap"/><path fill="#333" d="M199 0l-22-63H83L61 0H9l90-248h61L250 0h-51zm-33-102l-36-108c-10 38-24 72-36 108h72" id="aq"/><g id="d"><use transform="matrix(0.06790123456790119,0,0,0.06790123456790119,0,0)" xlink:href="#ao"/><use transform="matrix(0.06790123456790119,0,0,0.06790123456790119,20.302469135802454,0)" xlink:href="#an"/><use transform="matrix(0.06790123456790119,0,0,0.06790123456790119,36.59876543209874,0)" xlink:href="#am"/><use transform="matrix(0.06790123456790119,0,0,0.06790123456790119,54.18518518518515,0)" xlink:href="#ap"/><use transform="matrix(0.06790123456790119,0,0,0.06790123456790119,60.97530864197527,0)" xlink:href="#aq"/></g><path fill="#333" d="M14-72v-43h91v43H14" id="ar"/><use transform="matrix(0.06790123456790119,0,0,0.06790123456790119,0,0)" xlink:href="#ar" id="e"/><path fill="#282c33" d="M67-125c0 53 21 87 73 88 37 1 54-22 65-47l45 17C233-25 199 4 140 4 58 4 20-42 15-125 8-235 124-281 211-232c18 10 29 29 36 50l-46 12c-8-25-30-41-62-41-52 0-71 34-72 86" id="as"/><path fill="#282c33" d="M199 0l-22-63H83L61 0H9l90-248h61L250 0h-51zm-33-102l-36-108c-10 38-24 72-36 108h72" id="at"/><path fill="#282c33" d="M24 0v-248h52v208h133V0H24" id="au"/><path fill="#282c33" d="M238-95c0 69-44 99-111 99C63 4 22-25 22-93v-155h51v151c-1 38 19 59 55 60 90 1 49-130 58-211h52v153" id="av"/><path fill="#282c33" d="M240-174c0 40-23 61-54 70L253 0h-59l-57-94H76V0H24v-248c93 4 217-23 216 74zM76-134c48-2 112 12 112-38 0-48-66-32-112-35v73" id="aw"/><g id="f"><use transform="matrix(0.0654320987654321,0,0,0.0654320987654321,0,0)" xlink:href="#as"/><use transform="matrix(0.0654320987654321,0,0,0.0654320987654321,16.946913580246914,0)" xlink:href="#at"/><use transform="matrix(0.0654320987654321,0,0,0.0654320987654321,33.89382716049383,0)" xlink:href="#au"/><use transform="matrix(0.0654320987654321,0,0,0.0654320987654321,48.22345679012346,0)" xlink:href="#as"/><use transform="matrix(0.0654320987654321,0,0,0.0654320987654321,65.17037037037036,0)" xlink:href="#av"/><use transform="matrix(0.0654320987654321,0,0,0.0654320987654321,82.11728395061728,0)" xlink:href="#au"/><use transform="matrix(0.0654320987654321,0,0,0.0654320987654321,96.44691358024691,0)" xlink:href="#at"/><use transform="matrix(0.0654320987654321,0,0,0.0654320987654321,113.39382716049383,0)" xlink:href="#aw"/></g><path fill="#282c33" d="M169-182c-1-43-94-46-97-3 18 66 151 10 154 114 3 95-165 93-204 36-6-8-10-19-12-30l50-8c3 46 112 56 116 5-17-69-150-10-154-114-4-87 153-88 188-35 5 8 8 18 10 28" id="ax"/><g id="g"><use transform="matrix(0.0654320987654321,0,0,0.0654320987654321,0,0)" xlink:href="#at"/><use transform="matrix(0.0654320987654321,0,0,0.0654320987654321,16.946913580246914,0)" xlink:href="#ax"/></g><path fill="#282c33" d="M230 0l2-204L168 0h-37L68-204 70 0H24v-248h70l56 185 57-185h69V0h-46" id="ay"/><path fill="#282c33" d="M91-269v-5l44-45h46v8l-60 42H91zM24 0v-248h195v40H76v63h132v40H76v65h150V0H24" id="az"/><path fill="#282c33" d="M24-248c120-7 223 5 221 122C244-46 201 0 124 0H24v-248zM76-40c74 7 117-18 117-86 0-67-45-88-117-82v168" id="aA"/><path fill="#282c33" d="M24 0v-248h52V0H24" id="aB"/><g id="h"><use transform="matrix(0.0654320987654321,0,0,0.0654320987654321,0,0)" xlink:href="#ay"/><use transform="matrix(0.0654320987654321,0,0,0.0654320987654321,19.5641975308642,0)" xlink:href="#az"/><use transform="matrix(0.0654320987654321,0,0,0.0654320987654321,35.2679012345679,0)" xlink:href="#aA"/><use transform="matrix(0.0654320987654321,0,0,0.0654320987654321,52.214814814814815,0)" xlink:href="#aB"/><use transform="matrix(0.0654320987654321,0,0,0.0654320987654321,58.758024691358024,0)" xlink:href="#at"/></g><path fill="#282c33" d="M76-208v77h127v40H76V0H24v-248h183v40H76" id="aC"/><path fill="#282c33" d="M175 0L67-191c6 58 2 128 3 191H24v-248h59L193-55c-6-58-2-129-3-193h46V0h-61" id="aD"/><g id="i"><use transform="matrix(0.0654320987654321,0,0,0.0654320987654321,0,0)" xlink:href="#aC"/><use transform="matrix(0.0654320987654321,0,0,0.0654320987654321,14.32962962962963,0)" xlink:href="#aB"/><use transform="matrix(0.0654320987654321,0,0,0.0654320987654321,20.87283950617284,0)" xlink:href="#aD"/><use transform="matrix(0.0654320987654321,0,0,0.0654320987654321,37.81975308641975,0)" xlink:href="#at"/><use transform="matrix(0.0654320987654321,0,0,0.0654320987654321,54.766666666666666,0)" xlink:href="#au"/></g><path fill="#282c33" d="M140-251c80 0 125 45 125 126S219 4 139 4C58 4 15-44 15-125s44-126 125-126zm-1 214c52 0 73-35 73-88 0-50-21-86-72-86-52 0-73 35-73 86s22 88 72 88" id="aE"/><g id="j"><use transform="matrix(0.0654320987654321,0,0,0.0654320987654321,0,0)" xlink:href="#aA"/><use transform="matrix(0.0654320987654321,0,0,0.0654320987654321,16.946913580246914,0)" xlink:href="#aE"/><use transform="matrix(0.0654320987654321,0,0,0.0654320987654321,35.2679012345679,0)" xlink:href="#ax"/></g><g id="k"><use transform="matrix(0.0654320987654321,0,0,0.0654320987654321,0,0)" xlink:href="#at"/><use transform="matrix(0.0654320987654321,0,0,0.0654320987654321,16.946913580246914,0)" xlink:href="#au"/><use transform="matrix(0.0654320987654321,0,0,0.0654320987654321,31.276543209876543,0)" xlink:href="#av"/><use transform="matrix(0.0654320987654321,0,0,0.0654320987654321,48.22345679012346,0)" xlink:href="#aD"/><use transform="matrix(0.0654320987654321,0,0,0.0654320987654321,65.17037037037036,0)" xlink:href="#aE"/><use transform="matrix(0.0654320987654321,0,0,0.0654320987654321,83.49135802469135,0)" xlink:href="#ax"/></g><path fill="#333" d="M205 0l-28-72H64L36 0H1l101-248h38L239 0h-34zm-38-99l-47-123c-12 45-31 82-46 123h93" id="aF"/><path fill="#333" d="M30 0v-248h33v221h125V0H30" id="aG"/><path fill="#333" d="M143 4C61 4 22-44 18-125c-5-107 100-154 193-111 17 8 29 25 37 43l-32 9c-13-25-37-40-76-40-61 0-88 39-88 99 0 61 29 100 91 101 35 0 62-11 79-27v-45h-74v-28h105v86C228-13 192 4 143 4" id="aH"/><path fill="#333" d="M233-177c-1 41-23 64-60 70L243 0h-38l-65-103H63V0H30v-248c88 3 205-21 203 71zM63-129c60-2 137 13 137-47 0-61-80-42-137-45v92" id="aI"/><path fill="#333" d="M127-220V0H93v-220H8v-28h204v28h-85" id="aJ"/><path fill="#333" d="M240 0l2-218c-23 76-54 145-80 218h-23L58-218 59 0H30v-248h44l77 211c21-75 51-140 76-211h43V0h-30" id="aK"/><path fill="#333" d="M185-189c-5-48-123-54-124 2 14 75 158 14 163 119 3 78-121 87-175 55-17-10-28-26-33-46l33-7c5 56 141 63 141-1 0-78-155-14-162-118-5-82 145-84 179-34 5 7 8 16 11 25" id="aL"/><g id="l"><use transform="matrix(0.04320987654320987,0,0,0.04320987654320987,0,0)" xlink:href="#aF"/><use transform="matrix(0.04320987654320987,0,0,0.04320987654320987,10.370370370370368,0)" xlink:href="#aG"/><use transform="matrix(0.04320987654320987,0,0,0.04320987654320987,19.01234567901234,0)" xlink:href="#aH"/><use transform="matrix(0.04320987654320987,0,0,0.04320987654320987,31.111111111111104,0)" xlink:href="#ag"/><use transform="matrix(0.04320987654320987,0,0,0.04320987654320987,43.209876543209866,0)" xlink:href="#aI"/><use transform="matrix(0.04320987654320987,0,0,0.04320987654320987,54.40123456790122,0)" xlink:href="#ad"/><use transform="matrix(0.04320987654320987,0,0,0.04320987654320987,58.72222222222221,0)" xlink:href="#aJ"/><use transform="matrix(0.04320987654320987,0,0,0.04320987654320987,68.18518518518516,0)" xlink:href="#aK"/><use transform="matrix(0.04320987654320987,0,0,0.04320987654320987,81.10493827160491,0)" xlink:href="#ag"/><use transform="matrix(0.04320987654320987,0,0,0.04320987654320987,93.20370370370367,0)" xlink:href="#aL"/></g><path fill="#333" d="M30-248c118-7 216 8 213 122C240-48 200 0 122 0H30v-248zM63-27c89 8 146-16 146-99s-60-101-146-95v194" id="aM"/><path fill="#333" d="M30 0v-248h187v28H63v79h144v27H63v87h162V0H30" id="aN"/><g id="m"><use transform="matrix(0.04320987654320987,0,0,0.04320987654320987,0,0)" xlink:href="#aM"/><use transform="matrix(0.04320987654320987,0,0,0.04320987654320987,11.191358024691356,0)" xlink:href="#aN"/></g><path fill="#333" d="M30-248c87 1 191-15 191 75 0 78-77 80-158 76V0H30v-248zm33 125c57 0 124 11 124-50 0-59-68-47-124-48v98" id="aO"/><path fill="#333" d="M212-179c-10-28-35-45-73-45-59 0-87 40-87 99 0 60 29 101 89 101 43 0 62-24 78-52l27 14C228-24 195 4 139 4 59 4 22-46 18-125c-6-104 99-153 187-111 19 9 31 26 39 46zM142 18c19-1 33 8 33 26 0 31-30 33-64 32V58c18 2 39 4 41-13 1-15-18-13-34-13l12-32h19" id="aP"/><path fill="#333" d="M184-316c-4 23-8 48-36 47s-64-43-75 0H57c4-23 8-48 36-47s64 44 74 0h17zM205 0l-28-72H64L36 0H1l101-248h38L239 0h-34zm-38-99l-47-123c-12 45-31 82-46 123h93" id="aQ"/><g id="n"><use transform="matrix(0.04320987654320987,0,0,0.04320987654320987,0,0)" xlink:href="#aO"/><use transform="matrix(0.04320987654320987,0,0,0.04320987654320987,10.370370370370368,0)" xlink:href="#aI"/><use transform="matrix(0.04320987654320987,0,0,0.04320987654320987,21.561728395061724,0)" xlink:href="#ag"/><use transform="matrix(0.04320987654320987,0,0,0.04320987654320987,33.66049382716049,0)" xlink:href="#aH"/><use transform="matrix(0.04320987654320987,0,0,0.04320987654320987,45.75925925925925,0)" xlink:href="#aF"/><use transform="matrix(0.04320987654320987,0,0,0.04320987654320987,56.12962962962962,0)" xlink:href="#aK"/><use transform="matrix(0.04320987654320987,0,0,0.04320987654320987,69.04938271604937,0)" xlink:href="#aF"/><use transform="matrix(0.04320987654320987,0,0,0.04320987654320987,79.41975308641973,0)" xlink:href="#aP"/><use transform="matrix(0.04320987654320987,0,0,0.04320987654320987,90.61111111111109,0)" xlink:href="#aQ"/><use transform="matrix(0.04320987654320987,0,0,0.04320987654320987,100.98148148148147,0)" xlink:href="#ag"/></g><path fill="#333" d="M117-194c89-4 53 116 60 194h-32v-121c0-31-8-49-39-48C34-167 62-67 57 0H25l-1-190h30c1 10-1 24 2 32 11-22 29-35 61-36" id="aR"/><path fill="#333" d="M100-194c62-1 85 37 85 99 1 63-27 99-86 99S16-35 15-95c0-66 28-99 85-99zM99-20c44 1 53-31 53-75 0-43-8-75-51-75s-53 32-53 75 10 74 51 75" id="aS"/><path fill="#333" d="M59-47c-2 24 18 29 38 22v24C64 9 27 4 27-40v-127H5v-23h24l9-43h21v43h35v23H59v120" id="aT"/><path fill="#333" d="M141-36C126-15 110 5 73 4 37 3 15-17 15-53c-1-64 63-63 125-63 3-35-9-54-41-54-24 1-41 7-42 31l-33-3c5-37 33-52 76-52 45 0 72 20 72 64v82c-1 20 7 32 28 27v20c-31 9-61-2-59-35zM48-53c0 20 12 33 32 33 41-3 63-29 60-74-43 2-92-5-92 41" id="aU"/><path fill="#333" d="M84 4C-5 8 30-112 23-190h32v120c0 31 7 50 39 49 72-2 45-101 50-169h31l1 190h-30c-1-10 1-25-2-33-11 22-28 36-60 37" id="aV"/><path fill="#333" d="M210-169c-67 3-38 105-44 169h-31v-121c0-29-5-50-35-48C34-165 62-65 56 0H25l-1-190h30c1 10-1 24 2 32 10-44 99-50 107 0 11-21 27-35 58-36 85-2 47 119 55 194h-31v-121c0-29-5-49-35-48" id="aW"/><g id="o"><use transform="matrix(0.06172839506172839,0,0,0.06172839506172839,0,0)" xlink:href="#aR"/><use transform="matrix(0.06172839506172839,0,0,0.06172839506172839,12.345679012345679,0)" xlink:href="#aS"/><use transform="matrix(0.06172839506172839,0,0,0.06172839506172839,24.691358024691358,0)" xlink:href="#aT"/><use transform="matrix(0.06172839506172839,0,0,0.06172839506172839,30.864197530864196,0)" xlink:href="#aU"/><use transform="matrix(0.06172839506172839,0,0,0.06172839506172839,43.20987654320987,0)" xlink:href="#aV"/><use transform="matrix(0.06172839506172839,0,0,0.06172839506172839,55.55555555555555,0)" xlink:href="#aW"/></g><path fill="#333" d="M18-150v-26h174v26H18zm0 90v-26h174v26H18" id="aX"/><use transform="matrix(0.06172839506172839,0,0,0.06172839506172839,0,0)" xlink:href="#aX" id="p"/><g id="q"><use transform="matrix(0.06172839506172839,0,0,0.06172839506172839,0,0)" xlink:href="#aR"/><use transform="matrix(0.06172839506172839,0,0,0.06172839506172839,12.345679012345679,0)" xlink:href="#aS"/><use transform="matrix(0.06172839506172839,0,0,0.06172839506172839,24.691358024691358,0)" xlink:href="#aT"/><use transform="matrix(0.06172839506172839,0,0,0.06172839506172839,30.864197530864196,0)" xlink:href="#aU"/><use transform="matrix(0.06172839506172839,0,0,0.06172839506172839,43.20987654320987,0)" xlink:href="#aV"/><use transform="matrix(0.06172839506172839,0,0,0.06172839506172839,55.55555555555555,0)" xlink:href="#aW"/></g><path fill="#333" d="M80-196l47-18 7 23-49 13 32 44-20 13-27-46-27 45-21-12 33-44-49-13 8-23 47 19-2-53h23" id="aY"/><use transform="matrix(0.06172839506172839,0,0,0.06172839506172839,0,0)" xlink:href="#aY" id="r"/><path fill="#333" d="M101-251c68 0 85 55 85 127S166 4 100 4C33 4 14-52 14-124c0-73 17-127 87-127zm-1 229c47 0 54-49 54-102s-4-102-53-102c-51 0-55 48-55 102 0 53 5 102 54 102" id="aZ"/><path fill="#333" d="M33 0v-38h34V0H33" id="ba"/><path fill="#333" d="M27 0v-27h64v-190l-56 39v-29l58-41h29v221h61V0H27" id="bb"/><path fill="#333" d="M54-142c48-35 137-8 131 61C196 18 31 33 14-55l32-4c7 23 22 37 52 37 35-1 51-22 54-58 4-55-73-65-99-34H22l8-134h141v27H59" id="bc"/><g id="s"><use transform="matrix(0.06172839506172839,0,0,0.06172839506172839,0,0)" xlink:href="#aZ"/><use transform="matrix(0.06172839506172839,0,0,0.06172839506172839,12.345679012345679,0)" xlink:href="#ba"/><use transform="matrix(0.06172839506172839,0,0,0.06172839506172839,18.51851851851852,0)" xlink:href="#bb"/><use transform="matrix(0.06172839506172839,0,0,0.06172839506172839,30.864197530864196,0)" xlink:href="#bc"/></g><path fill="#333" d="M85-194c31 0 48 13 60 33l-1-100h32l1 261h-30c-2-10 0-23-3-31C134-8 116 4 85 4 32 4 16-35 15-94c0-66 23-100 70-100zm9 24c-40 0-46 34-46 75 0 40 6 74 45 74 42 0 51-32 51-76 0-42-9-74-50-73" id="bd"/><path fill="#333" d="M24-231v-30h32v30H24zM24 0v-190h32V0H24" id="be"/><path fill="#333" d="M135-143c-3-34-86-38-87 0 15 53 115 12 119 90S17 21 10-45l28-5c4 36 97 45 98 0-10-56-113-15-118-90-4-57 82-63 122-42 12 7 21 19 24 35" id="bf"/><g id="t"><use transform="matrix(0.06172839506172839,0,0,0.06172839506172839,0,0)" xlink:href="#aR"/><use transform="matrix(0.06172839506172839,0,0,0.06172839506172839,12.345679012345679,0)" xlink:href="#aS"/><use transform="matrix(0.06172839506172839,0,0,0.06172839506172839,24.691358024691358,0)" xlink:href="#aT"/><use transform="matrix(0.06172839506172839,0,0,0.06172839506172839,30.864197530864196,0)" xlink:href="#aU"/><use transform="matrix(0.06172839506172839,0,0,0.06172839506172839,43.20987654320987,0)" xlink:href="#bd"/><use transform="matrix(0.06172839506172839,0,0,0.06172839506172839,55.55555555555555,0)" xlink:href="#aS"/><use transform="matrix(0.06172839506172839,0,0,0.06172839506172839,67.90123456790123,0)" xlink:href="#be"/><use transform="matrix(0.06172839506172839,0,0,0.06172839506172839,72.77777777777777,0)" xlink:href="#bf"/></g><g id="u"><use transform="matrix(0.06172839506172839,0,0,0.06172839506172839,0,0)" xlink:href="#aR"/><use transform="matrix(0.06172839506172839,0,0,0.06172839506172839,12.345679012345679,0)" xlink:href="#aS"/><use transform="matrix(0.06172839506172839,0,0,0.06172839506172839,24.691358024691358,0)" xlink:href="#aT"/><use transform="matrix(0.06172839506172839,0,0,0.06172839506172839,30.864197530864196,0)" xlink:href="#aU"/><use transform="matrix(0.06172839506172839,0,0,0.06172839506172839,43.20987654320987,0)" xlink:href="#bd"/><use transform="matrix(0.06172839506172839,0,0,0.06172839506172839,55.55555555555555,0)" xlink:href="#aS"/><use transform="matrix(0.06172839506172839,0,0,0.06172839506172839,67.90123456790123,0)" xlink:href="#be"/><use transform="matrix(0.06172839506172839,0,0,0.06172839506172839,72.77777777777777,0)" xlink:href="#bf"/></g><path fill="#333" d="M126-127c33 6 58 20 58 59 0 88-139 92-164 29-3-8-5-16-6-25l32-3c6 27 21 44 54 44 32 0 52-15 52-46 0-38-36-46-79-43v-28c39 1 72-4 72-42 0-27-17-43-46-43-28 0-47 15-49 41l-32-3c6-42 35-63 81-64 48-1 79 21 79 65 0 36-21 52-52 59" id="bg"/><g id="v"><use transform="matrix(0.06172839506172839,0,0,0.06172839506172839,0,0)" xlink:href="#aZ"/><use transform="matrix(0.06172839506172839,0,0,0.06172839506172839,12.345679012345679,0)" xlink:href="#ba"/><use transform="matrix(0.06172839506172839,0,0,0.06172839506172839,18.51851851851852,0)" xlink:href="#bg"/></g><path fill="#333" d="M177-190C167-65 218 103 67 71c-23-6-38-20-44-43l32-5c15 47 100 32 89-28v-30C133-14 115 1 83 1 29 1 15-40 15-95c0-56 16-97 71-98 29-1 48 16 59 35 1-10 0-23 2-32h30zM94-22c36 0 50-32 50-73 0-42-14-75-50-75-39 0-46 34-46 75s6 73 46 73" id="bh"/><g id="w"><use transform="matrix(0.06172839506172839,0,0,0.06172839506172839,0,0)" xlink:href="#aR"/><use transform="matrix(0.06172839506172839,0,0,0.06172839506172839,12.345679012345679,0)" xlink:href="#aS"/><use transform="matrix(0.06172839506172839,0,0,0.06172839506172839,24.691358024691358,0)" xlink:href="#aT"/><use transform="matrix(0.06172839506172839,0,0,0.06172839506172839,30.864197530864196,0)" xlink:href="#aU"/><use transform="matrix(0.06172839506172839,0,0,0.06172839506172839,43.20987654320987,0)" xlink:href="#aU"/><use transform="matrix(0.06172839506172839,0,0,0.06172839506172839,55.55555555555555,0)" xlink:href="#bh"/></g><g id="x"><use transform="matrix(0.06172839506172839,0,0,0.06172839506172839,0,0)" xlink:href="#aR"/><use transform="matrix(0.06172839506172839,0,0,0.06172839506172839,12.345679012345679,0)" xlink:href="#aS"/><use transform="matrix(0.06172839506172839,0,0,0.06172839506172839,24.691358024691358,0)" xlink:href="#aT"/><use transform="matrix(0.06172839506172839,0,0,0.06172839506172839,30.864197530864196,0)" xlink:href="#aU"/><use transform="matrix(0.06172839506172839,0,0,0.06172839506172839,43.20987654320987,0)" xlink:href="#aU"/><use transform="matrix(0.06172839506172839,0,0,0.06172839506172839,55.55555555555555,0)" xlink:href="#bh"/></g><g id="y"><use transform="matrix(0.06172839506172839,0,0,0.06172839506172839,0,0)" xlink:href="#aZ"/><use transform="matrix(0.06172839506172839,0,0,0.06172839506172839,12.345679012345679,0)" xlink:href="#ba"/><use transform="matrix(0.06172839506172839,0,0,0.06172839506172839,18.51851851851852,0)" xlink:href="#bb"/></g><path fill="#333" d="M101-234c-31-9-42 10-38 44h38v23H63V0H32v-167H5v-23h27c-7-52 17-82 69-68v24" id="bi"/><g id="z"><use transform="matrix(0.06172839506172839,0,0,0.06172839506172839,0,0)" xlink:href="#aR"/><use transform="matrix(0.06172839506172839,0,0,0.06172839506172839,12.345679012345679,0)" xlink:href="#aS"/><use transform="matrix(0.06172839506172839,0,0,0.06172839506172839,24.691358024691358,0)" xlink:href="#aT"/><use transform="matrix(0.06172839506172839,0,0,0.06172839506172839,30.864197530864196,0)" xlink:href="#aU"/><use transform="matrix(0.06172839506172839,0,0,0.06172839506172839,43.20987654320987,0)" xlink:href="#aU"/><use transform="matrix(0.06172839506172839,0,0,0.06172839506172839,55.55555555555555,0)" xlink:href="#bi"/></g><g id="A"><use transform="matrix(0.06172839506172839,0,0,0.06172839506172839,0,0)" xlink:href="#aR"/><use transform="matrix(0.06172839506172839,0,0,0.06172839506172839,12.345679012345679,0)" xlink:href="#aS"/><use transform="matrix(0.06172839506172839,0,0,0.06172839506172839,24.691358024691358,0)" xlink:href="#aT"/><use transform="matrix(0.06172839506172839,0,0,0.06172839506172839,30.864197530864196,0)" xlink:href="#aU"/><use transform="matrix(0.06172839506172839,0,0,0.06172839506172839,43.20987654320987,0)" xlink:href="#aU"/><use transform="matrix(0.06172839506172839,0,0,0.06172839506172839,55.55555555555555,0)" xlink:href="#bi"/></g><path fill="#333" d="M155-56V0h-30v-56H8v-25l114-167h33v167h35v25h-35zm-30-156c-27 46-58 90-88 131h88v-131" id="bj"/><g id="B"><use transform="matrix(0.06172839506172839,0,0,0.06172839506172839,0,0)" xlink:href="#aZ"/><use transform="matrix(0.06172839506172839,0,0,0.06172839506172839,12.345679012345679,0)" xlink:href="#ba"/><use transform="matrix(0.06172839506172839,0,0,0.06172839506172839,18.51851851851852,0)" xlink:href="#bj"/><use transform="matrix(0.06172839506172839,0,0,0.06172839506172839,30.864197530864196,0)" xlink:href="#bc"/></g><path fill="#333" d="M114-163C36-179 61-72 57 0H25l-1-190h30c1 12-1 29 2 39 6-27 23-49 58-41v29" id="bk"/><path fill="#333" d="M100-194c63 0 86 42 84 106H49c0 40 14 67 53 68 26 1 43-12 49-29l28 8c-11 28-37 45-77 45C44 4 14-33 15-96c1-61 26-98 85-98zm52 81c6-60-76-77-97-28-3 7-6 17-6 28h103" id="bl"/><path fill="#333" d="M24 0v-261h32V0H24" id="bm"/><g id="C"><use transform="matrix(0.06172839506172839,0,0,0.06172839506172839,0,0)" xlink:href="#bk"/><use transform="matrix(0.06172839506172839,0,0,0.06172839506172839,7.345679012345679,0)" xlink:href="#bl"/><use transform="matrix(0.06172839506172839,0,0,0.06172839506172839,19.691358024691358,0)" xlink:href="#bf"/><use transform="matrix(0.06172839506172839,0,0,0.06172839506172839,30.80246913580247,0)" xlink:href="#aV"/><use transform="matrix(0.06172839506172839,0,0,0.06172839506172839,43.148148148148145,0)" xlink:href="#bm"/><use transform="matrix(0.06172839506172839,0,0,0.06172839506172839,48.02469135802469,0)" xlink:href="#aT"/><use transform="matrix(0.06172839506172839,0,0,0.06172839506172839,54.19753086419753,0)" xlink:href="#aU"/><use transform="matrix(0.06172839506172839,0,0,0.06172839506172839,66.54320987654322,0)" xlink:href="#bd"/><use transform="matrix(0.06172839506172839,0,0,0.06172839506172839,78.8888888888889,0)" xlink:href="#aS"/></g><path fill="#333" d="M118-107v75H92v-75H18v-26h74v-75h26v75h74v26h-74" id="bn"/><use transform="matrix(0.06172839506172839,0,0,0.06172839506172839,0,0)" xlink:href="#bn" id="D"/><use transform="matrix(0.06172839506172839,0,0,0.06172839506172839,0,0)" xlink:href="#bn" id="E"/><g id="F"><use transform="matrix(0.06172839506172839,0,0,0.06172839506172839,0,0)" xlink:href="#aR"/><use transform="matrix(0.06172839506172839,0,0,0.06172839506172839,12.345679012345679,0)" xlink:href="#aS"/><use transform="matrix(0.06172839506172839,0,0,0.06172839506172839,24.691358024691358,0)" xlink:href="#aT"/><use transform="matrix(0.06172839506172839,0,0,0.06172839506172839,30.864197530864196,0)" xlink:href="#aU"/><use transform="matrix(0.06172839506172839,0,0,0.06172839506172839,43.20987654320987,0)" xlink:href="#aU"/><use transform="matrix(0.06172839506172839,0,0,0.06172839506172839,55.55555555555555,0)" xlink:href="#bi"/></g><use transform="matrix(0.06172839506172839,0,0,0.06172839506172839,0,0)" xlink:href="#aF" id="G"/><g id="H"><use transform="matrix(0.06172839506172839,0,0,0.06172839506172839,0,0)" xlink:href="#bf"/><use transform="matrix(0.06172839506172839,0,0,0.06172839506172839,11.11111111111111,0)" xlink:href="#bl"/></g><g id="I"><use transform="matrix(0.06172839506172839,0,0,0.06172839506172839,0,0)" xlink:href="#bk"/><use transform="matrix(0.06172839506172839,0,0,0.06172839506172839,7.345679012345679,0)" xlink:href="#bl"/><use transform="matrix(0.06172839506172839,0,0,0.06172839506172839,19.691358024691358,0)" xlink:href="#bf"/><use transform="matrix(0.06172839506172839,0,0,0.06172839506172839,30.80246913580247,0)" xlink:href="#aV"/><use transform="matrix(0.06172839506172839,0,0,0.06172839506172839,43.148148148148145,0)" xlink:href="#bm"/><use transform="matrix(0.06172839506172839,0,0,0.06172839506172839,48.02469135802469,0)" xlink:href="#aT"/><use transform="matrix(0.06172839506172839,0,0,0.06172839506172839,54.19753086419753,0)" xlink:href="#aU"/><use transform="matrix(0.06172839506172839,0,0,0.06172839506172839,66.54320987654322,0)" xlink:href="#bd"/><use transform="matrix(0.06172839506172839,0,0,0.06172839506172839,78.8888888888889,0)" xlink:href="#aS"/></g><path fill="#333" d="M18-27v-27l151-64-151-65v-27l175 74v36" id="bo"/><g id="J"><use transform="matrix(0.06172839506172839,0,0,0.06172839506172839,0,0)" xlink:href="#bo"/><use transform="matrix(0.06172839506172839,0,0,0.06172839506172839,12.962962962962962,0)" xlink:href="#aX"/></g><use transform="matrix(0.06172839506172839,0,0,0.06172839506172839,0,0)" xlink:href="#bc" id="K"/><g id="L"><use transform="matrix(0.06172839506172839,0,0,0.06172839506172839,0,0)" xlink:href="#aR"/><use transform="matrix(0.06172839506172839,0,0,0.06172839506172839,12.345679012345679,0)" xlink:href="#aS"/><use transform="matrix(0.06172839506172839,0,0,0.06172839506172839,24.691358024691358,0)" xlink:href="#aT"/><use transform="matrix(0.06172839506172839,0,0,0.06172839506172839,30.864197530864196,0)" xlink:href="#aU"/><use transform="matrix(0.06172839506172839,0,0,0.06172839506172839,43.20987654320987,0)" xlink:href="#aV"/><use transform="matrix(0.06172839506172839,0,0,0.06172839506172839,55.55555555555555,0)" xlink:href="#aW"/></g><g id="M"><use transform="matrix(0.06172839506172839,0,0,0.06172839506172839,0,0)" xlink:href="#aR"/><use transform="matrix(0.06172839506172839,0,0,0.06172839506172839,12.345679012345679,0)" xlink:href="#aS"/><use transform="matrix(0.06172839506172839,0,0,0.06172839506172839,24.691358024691358,0)" xlink:href="#aT"/><use transform="matrix(0.06172839506172839,0,0,0.06172839506172839,30.864197530864196,0)" xlink:href="#aU"/><use transform="matrix(0.06172839506172839,0,0,0.06172839506172839,43.20987654320987,0)" xlink:href="#bd"/><use transform="matrix(0.06172839506172839,0,0,0.06172839506172839,55.55555555555555,0)" xlink:href="#aS"/><use transform="matrix(0.06172839506172839,0,0,0.06172839506172839,67.90123456790123,0)" xlink:href="#be"/><use transform="matrix(0.06172839506172839,0,0,0.06172839506172839,72.77777777777777,0)" xlink:href="#bf"/></g><g id="N"><use transform="matrix(0.06172839506172839,0,0,0.06172839506172839,0,0)" xlink:href="#aR"/><use transform="matrix(0.06172839506172839,0,0,0.06172839506172839,12.345679012345679,0)" xlink:href="#aS"/><use transform="matrix(0.06172839506172839,0,0,0.06172839506172839,24.691358024691358,0)" xlink:href="#aT"/><use transform="matrix(0.06172839506172839,0,0,0.06172839506172839,30.864197530864196,0)" xlink:href="#aU"/><use transform="matrix(0.06172839506172839,0,0,0.06172839506172839,43.20987654320987,0)" xlink:href="#aU"/><use transform="matrix(0.06172839506172839,0,0,0.06172839506172839,55.55555555555555,0)" xlink:href="#bh"/></g><g id="O"><use transform="matrix(0.06172839506172839,0,0,0.06172839506172839,0,0)" xlink:href="#aR"/><use transform="matrix(0.06172839506172839,0,0,0.06172839506172839,12.345679012345679,0)" xlink:href="#aS"/><use transform="matrix(0.06172839506172839,0,0,0.06172839506172839,24.691358024691358,0)" xlink:href="#aT"/><use transform="matrix(0.06172839506172839,0,0,0.06172839506172839,30.864197530864196,0)" xlink:href="#aU"/><use transform="matrix(0.06172839506172839,0,0,0.06172839506172839,43.20987654320987,0)" xlink:href="#aU"/><use transform="matrix(0.06172839506172839,0,0,0.06172839506172839,55.55555555555555,0)" xlink:href="#bi"/></g><path fill="#333" d="M232-93c-1 65-40 97-104 97C67 4 28-28 28-90v-158h33c8 89-33 224 67 224 102 0 64-133 71-224h33v155" id="bp"/><g id="P"><use transform="matrix(0.06172839506172839,0,0,0.06172839506172839,0,0)" xlink:href="#aF"/><use transform="matrix(0.06172839506172839,0,0,0.06172839506172839,14.814814814814813,0)" xlink:href="#aG"/><use transform="matrix(0.06172839506172839,0,0,0.06172839506172839,27.160493827160494,0)" xlink:href="#bp"/><use transform="matrix(0.06172839506172839,0,0,0.06172839506172839,43.148148148148145,0)" xlink:href="#ae"/><use transform="matrix(0.06172839506172839,0,0,0.06172839506172839,59.1358024691358,0)" xlink:href="#ag"/></g><path fill="#333" d="M137 0h-34L2-248h35l83 218 83-218h36" id="bq"/><g id="Q"><use transform="matrix(0.06172839506172839,0,0,0.06172839506172839,0,0)" xlink:href="#aF"/><use transform="matrix(0.06172839506172839,0,0,0.06172839506172839,14.814814814814813,0)" xlink:href="#aO"/><use transform="matrix(0.06172839506172839,0,0,0.06172839506172839,29.629629629629626,0)" xlink:href="#aI"/><use transform="matrix(0.06172839506172839,0,0,0.06172839506172839,45.61728395061728,0)" xlink:href="#ag"/><use transform="matrix(0.06172839506172839,0,0,0.06172839506172839,62.90123456790123,0)" xlink:href="#bq"/><use transform="matrix(0.06172839506172839,0,0,0.06172839506172839,76.04938271604938,0)" xlink:href="#aF"/><use transform="matrix(0.06172839506172839,0,0,0.06172839506172839,90.86419753086419,0)" xlink:href="#aM"/><use transform="matrix(0.06172839506172839,0,0,0.06172839506172839,106.85185185185185,0)" xlink:href="#ag"/></g><g id="R"><use transform="matrix(0.06172839506172839,0,0,0.06172839506172839,0,0)" xlink:href="#aM"/><use transform="matrix(0.06172839506172839,0,0,0.06172839506172839,15.987654320987653,0)" xlink:href="#ad"/><use transform="matrix(0.06172839506172839,0,0,0.06172839506172839,22.160493827160494,0)" xlink:href="#aH"/><use transform="matrix(0.06172839506172839,0,0,0.06172839506172839,39.44444444444444,0)" xlink:href="#ad"/><use transform="matrix(0.06172839506172839,0,0,0.06172839506172839,45.617283950617285,0)" xlink:href="#aJ"/><use transform="matrix(0.06172839506172839,0,0,0.06172839506172839,59.135802469135804,0)" xlink:href="#aN"/></g><use transform="matrix(0.06172839506172839,0,0,0.06172839506172839,0,0)" xlink:href="#aF" id="S"/><g id="T"><use transform="matrix(0.06172839506172839,0,0,0.06172839506172839,0,0)" xlink:href="#ae"/><use transform="matrix(0.06172839506172839,0,0,0.06172839506172839,15.987654320987653,0)" xlink:href="#ag"/><use transform="matrix(0.06172839506172839,0,0,0.06172839506172839,33.2716049382716,0)" xlink:href="#aJ"/><use transform="matrix(0.06172839506172839,0,0,0.06172839506172839,45.12345679012345,0)" xlink:href="#aF"/></g><g id="U"><use transform="matrix(0.06172839506172839,0,0,0.06172839506172839,0,0)" xlink:href="#aM"/><use transform="matrix(0.06172839506172839,0,0,0.06172839506172839,15.987654320987653,0)" xlink:href="#aN"/></g><path fill="#333" d="M63-220v92h138v28H63V0H30v-248h175v28H63" id="br"/><path fill="#333" d="M33-154v-36h34v36H33zM33 0v-36h34V0H33" id="bs"/><g id="V"><use transform="matrix(0.06172839506172839,0,0,0.06172839506172839,0,0)" xlink:href="#aF"/><use transform="matrix(0.06172839506172839,0,0,0.06172839506172839,14.814814814814813,0)" xlink:href="#br"/><use transform="matrix(0.06172839506172839,0,0,0.06172839506172839,28.33333333333333,0)" xlink:href="#bs"/></g><g id="W"><use transform="matrix(0.06172839506172839,0,0,0.06172839506172839,0,0)" xlink:href="#aF"/><use transform="matrix(0.06172839506172839,0,0,0.06172839506172839,14.814814814814813,0)" xlink:href="#af"/><use transform="matrix(0.06172839506172839,0,0,0.06172839506172839,30.80246913580247,0)" xlink:href="#bb"/><use transform="matrix(0.06172839506172839,0,0,0.06172839506172839,43.148148148148145,0)" xlink:href="#bs"/></g><path fill="#333" d="M101-251c82-7 93 87 43 132L82-64C71-53 59-42 53-27h129V0H18c2-99 128-94 128-182 0-28-16-43-45-43s-46 15-49 41l-32-3c6-41 34-60 81-64" id="bt"/><g id="X"><use transform="matrix(0.06172839506172839,0,0,0.06172839506172839,0,0)" xlink:href="#aF"/><use transform="matrix(0.06172839506172839,0,0,0.06172839506172839,14.814814814814813,0)" xlink:href="#af"/><use transform="matrix(0.06172839506172839,0,0,0.06172839506172839,30.80246913580247,0)" xlink:href="#bt"/><use transform="matrix(0.06172839506172839,0,0,0.06172839506172839,43.148148148148145,0)" xlink:href="#bs"/></g><g id="Y"><use transform="matrix(0.06172839506172839,0,0,0.06172839506172839,0,0)" xlink:href="#aF"/><use transform="matrix(0.06172839506172839,0,0,0.06172839506172839,14.814814814814813,0)" xlink:href="#aH"/><use transform="matrix(0.06172839506172839,0,0,0.06172839506172839,32.09876543209876,0)" xlink:href="#bs"/></g><g id="Z"><use transform="matrix(0.06172839506172839,0,0,0.06172839506172839,0,0)" xlink:href="#aI"/><use transform="matrix(0.06172839506172839,0,0,0.06172839506172839,15.987654320987653,0)" xlink:href="#aN"/><use transform="matrix(0.06172839506172839,0,0,0.06172839506172839,30.80246913580247,0)" xlink:href="#aO"/><use transform="matrix(0.06172839506172839,0,0,0.06172839506172839,45.61728395061728,0)" xlink:href="#aI"/><use transform="matrix(0.06172839506172839,0,0,0.06172839506172839,61.60493827160493,0)" xlink:href="#ag"/><use transform="matrix(0.06172839506172839,0,0,0.06172839506172839,78.88888888888889,0)" xlink:href="#bq"/><use transform="matrix(0.06172839506172839,0,0,0.06172839506172839,92.03703703703702,0)" xlink:href="#aF"/><use transform="matrix(0.06172839506172839,0,0,0.06172839506172839,106.85185185185183,0)" xlink:href="#aM"/><use transform="matrix(0.06172839506172839,0,0,0.06172839506172839,122.83950617283949,0)" xlink:href="#ag"/></g><path fill="#333" d="M169-182c-1-43-94-46-97-3 18 66 151 10 154 114 3 95-165 93-204 36-6-8-10-19-12-30l50-8c3 46 112 56 116 5-17-69-150-10-154-114-4-87 153-88 188-35 5 8 8 18 10 28" id="bu"/><path fill="#333" d="M25-224v-37h50v37H25zM25 0v-190h50V0H25" id="bv"/><path fill="#333" d="M220-157c-53 9-28 100-34 157h-49v-107c1-27-5-49-29-50C55-147 81-57 75 0H25l-1-190h47c2 12-1 28 3 38 10-53 101-56 108 0 13-22 24-43 59-42 82 1 51 116 57 194h-49v-107c-1-25-5-48-29-50" id="bw"/><g id="aa"><use transform="matrix(0.04938271604938272,0,0,0.04938271604938272,0,0)" xlink:href="#bu"/><use transform="matrix(0.04938271604938272,0,0,0.04938271604938272,11.851851851851853,0)" xlink:href="#bv"/><use transform="matrix(0.04938271604938272,0,0,0.04938271604938272,16.790123456790127,0)" xlink:href="#bw"/></g><path fill="#333" d="M175 0L67-191c6 58 2 128 3 191H24v-248h59L193-55c-6-58-2-129-3-193h46V0h-61" id="bx"/><path fill="#333" d="M101-320c28 0 65 44 74 0h23c0 29-10 51-39 51-28-1-66-45-74 0H61c2-28 9-52 40-51zM199 0l-22-63H83L61 0H9l90-248h61L250 0h-51zm-33-102l-36-108c-10 38-24 72-36 108h72" id="by"/><g id="ab"><use transform="matrix(0.04938271604938272,0,0,0.04938271604938272,0,0)" xlink:href="#bx"/><use transform="matrix(0.04938271604938272,0,0,0.04938271604938272,12.790123456790125,0)" xlink:href="#by"/><use transform="matrix(0.04938271604938272,0,0,0.04938271604938272,25.58024691358025,0)" xlink:href="#al"/></g><g id="ac"><use transform="matrix(0.06172839506172839,0,0,0.06172839506172839,0,0)" xlink:href="#br"/><use transform="matrix(0.06172839506172839,0,0,0.06172839506172839,13.518518518518517,0)" xlink:href="#ad"/><use transform="matrix(0.06172839506172839,0,0,0.06172839506172839,19.691358024691358,0)" xlink:href="#aK"/></g></defs></g></svg>